<svg xmlns="http://www.w3.org/2000/svg" viewBox="0 0 634.44 375.94"><title>Asset 2</title><g id="Layer_2" data-name="Layer 2"><g id="Layer_1-2" data-name="Layer 1"><path d="M15.49,105.94l-.54-.53Z"/><path d="M63.7,166.22c1.8-.24,3.59-.81,5.32-.65a6.6,6.6,0,0,1,5.71,6.65,7.37,7.37,0,0,1-6.6,7.17c-8.32,1.13-14.73-6.88-12-15.2,2.33-7.1,7.71-10.79,14.84-11.75,9.65-1.3,19,2.94,23.54,11.66,2.75,5.28,3.25,11,2.61,16.74a37.23,37.23,0,0,1-9.63,21.82,34.21,34.21,0,0,1-19,10.22c-9.87,2-19.52,1.41-28.7-3.09-14.63-7.16-21.49-20.69-19.45-36.58s10.77-26.9,24.32-34.56a69.41,69.41,0,0,1,26.7-8.33c10-1.13,20-1.81,30-2.93,10.43-1.17,20.9-2.38,30.94-5.65,3.84-1.25,7.47-3.17,11.19-4.81.65-.28,1.25-.69,1.9-.94,1.28-.5,1.94,0,1.81,1.4-.36,3.82-1,7.64-1.06,11.46-.16,8.74-.19,17.49,0,26.23.15,6.43.63,12.86,1.16,19.28q1,11.91,2.28,23.8c1,9.16,2.18,18.29,3.39,27.42s2.55,18.23,3.9,27.83c1.92-8.2,3.78-15.9,5.53-23.62,4.23-18.75,8.52-37.5,12.59-56.29,2-9.45,3.67-19,5.49-28.48.06-.35,0-.78.21-1a15.81,15.81,0,0,1,1.39-1.45c.44.49,1.09.91,1.28,1.48,1.28,3.92,2.41,7.9,3.68,11.82,8.39,26,17.64,51.7,28.41,76.82.2.47.44.92.61,1.26,0-4.94-.1-9.94,0-14.94.28-12.7.35-25.41,1.07-38.09,1.69-29.64,5.57-59,13.75-87.61,5.15-18,11.91-35.34,22.14-51.16,8-12.36,17.74-23,30.51-30.63A74.08,74.08,0,0,1,315.08,1.36c12-1.11,23.45.54,34.22,6,11.19,5.72,18.9,14.37,21.27,27,2.75,14.52-.36,27.64-10.71,38.53-6.05,6.36-13.69,10-22.26,11.61-9,1.66-17.9,1.51-26.48-2-8.77-3.61-14.81-9.71-16.33-19.37-2.13-13.5,5.83-25.7,19.12-29.67C319,31.91,324,31.68,329,33.78c4.73,2,7.58,5.61,8,10.79.44,5-1.41,8.9-5.79,11.48a11.08,11.08,0,0,1-8,1.47c-3.76-.76-5.83-4.15-5.09-8.07a7.3,7.3,0,0,1,8.1-5.58c.8.15,1.57.42,2.38.64a5.85,5.85,0,0,0-4.91-4.59c-6.3-1.23-13.16,3.35-15,10.2C305.89,60.91,311.9,71.05,326,70.61a24.08,24.08,0,0,0,21.26-33.94c-3.23-7.36-9.38-11.28-16.91-13-12.06-2.76-22.95.26-32.77,7.44-9.22,6.73-15.72,15.77-21.15,25.65-7.87,14.32-13,29.7-17,45.46a354.32,354.32,0,0,0-8.92,48.89c-1.55,14.14-3,28.32-3.89,42.51-.87,13.2-1.43,26.44-1.41,39.67,0,14.93.57,29.88,1.4,44.79.6,11,2,21.87,3.1,32.79.29,2.92-.33,4-3.15,5.11-6.4,2.43-12.94,4.54-19.16,7.36S215,329.76,208.87,333c-.57.3-1.1.69-1.67,1-2.19,1.22-3.25.72-3.39-1.74-1.33-22.7-7.19-44.42-14.19-65.89-1.54-4.71-3.36-9.32-5.05-14a9.64,9.64,0,0,0-.54-.92c-.71,3.9-1.5,7.47-2,11.07-1.46,10.58-3.05,21.15-4.14,31.77a194.5,194.5,0,0,0-.44,39.64c.38,3.69,1.13,7.35,1.71,11,.42,2.7,0,3.36-2.41,4.58-6.37,3.23-12.9,6.22-19,9.87-7.85,4.7-15.36,10-23,15a4.1,4.1,0,0,1-.87.6c-1.11.36-2.36,1.11-3.36.88-1.49-.35-1.15-2-1.14-3.19.08-10.23.49-20.46.15-30.67-.41-12.69-1.29-25.37-2.25-38q-1.12-15-2.94-30c-1.56-12.83-3.21-25.65-5.21-38.42-2.92-18.59-6-37.15-9.35-55.67-2.56-14.22-5.64-28.34-8.51-42.51-.15-.73-.25-1.46-1.39-1.4-12.28.61-24.38,2-35.5,7.85C58,147.24,52.46,151.53,49.14,158c-4.1,8-5.06,16.25-.13,24.31,4.7,7.66,14.1,10.7,23,7.72a18.83,18.83,0,0,0,12.56-19.51c-.38-4.55-2.52-8.08-6.8-10a10.32,10.32,0,0,0-10.75.84A7.14,7.14,0,0,0,63.7,166.22Z"/><path d="M400.83,160.32c0,10.14-.15,19.94.05,29.74.14,7.2.6,14.4,1.17,21.59.72,9.29,1.73,18.57,4.17,27.61,1.35,5,1.95,6.15,5.42,10.42a12.36,12.36,0,0,1-1.46.48c-13.39,2.46-26.23,6.86-39.07,11.22-1.46.49-2.89,1-4.36,1.49a3.8,3.8,0,0,1-1.28-.1c.07-.44,0-1,.24-1.29,7.17-9.42,9-20.64,10.6-31.88,2.69-18.67,2.71-37.49,1.93-56.27-.66-16-2.2-32-3.38-48.06-.12-1.64-.47-3.27-.72-4.94-4.16-.64-8.31-1.16-12.41-1.93-9.51-1.78-19-3.79-28.49-5.5q-8.88-1.59-17.86-2.55a30.23,30.23,0,0,0-14.92,2.25c-5.08,2.1-8.72,5.54-9.45,11.2a14.41,14.41,0,0,0,6.11,14.39c.33.24.64.51,1.14.9a10.72,10.72,0,0,1-5.58,2.09c-7.9,1.11-15.24-.27-21.46-5.5-5.5-4.62-6.64-10.79-5.44-17.55,1.79-10.13,8.37-15.91,17.68-19.08,6.81-2.32,13.87-2.68,21-2.56,14.06.24,27.35,4.18,40.59,8.38,9.28,2.94,18.59,5.79,28.28,7.08,12.89,1.71,25.68,1.8,38.12-2.79,2-.74,2.63-.28,3.35,1.84,8.21,24.15,17.3,47.95,28.42,70.93a2.25,2.25,0,0,0,.93,1.06c0-1.54,0-3.09,0-4.64.07-9.45.38-18.91.15-28.36-.25-9.91-1.07-19.82-3.78-29.44a52.63,52.63,0,0,0-3.08-7.89,10.45,10.45,0,0,0-5.19-5.37c-.38-.17-.6-.73-.89-1.11.39-.29.76-.77,1.17-.82a40.19,40.19,0,0,1,4.24-.25,151.07,151.07,0,0,0,34-4.35,7.69,7.69,0,0,1,2,.06c-.22.65-.46,1.3-.67,2-1,3.13-2.49,6.19-2.91,9.39-1.21,9.3-2.22,18.63-2.9,28-1.34,18.52-1.39,37.1-1,55.65.27,12.69,1.18,25.36,2.11,38,.31,4.22.53,5-4.16,5.42a168.39,168.39,0,0,0-28.3,5.38c-1.83.51-2.49,0-3-2.18a383.63,383.63,0,0,0-12.62-40.33,321,321,0,0,0-17.73-40.51C401.36,161.24,401.15,160.89,400.83,160.32Z"/><path d="M318.9,159.18c-4.54-.38-8.53.26-11.83,3.25a11.6,11.6,0,0,0-3.66,6.72c-1.08,5.91.89,12.25,4.17,13.67-.07-.81-.18-1.62-.2-2.43-.11-4.89,3.14-8.32,7.88-8.34a8,8,0,0,1,8,8.18c.05,6.9-5.42,11.68-13,11.34-6.93-.3-12.15-4.87-14.07-12.64-.52,1.24-1,2.12-1.29,3.06A92.49,92.49,0,0,0,291,203.35a129.47,129.47,0,0,0,.35,25.13c.73,6.48,1.86,12.89,4.72,18.8a28.42,28.42,0,0,0,4.6,6.86c4,4.3,9.21,4.94,14.37,2.13S323.1,249,325.54,244c3.8-7.78,5.62-16.14,6.74-24.65a168.35,168.35,0,0,0,1.35-27.76c-.42-11.9-1.42-23.74-6-34.88a50,50,0,0,0-6.17-10.89c-4.51-6-10.78-9-18.68-9a24.28,24.28,0,0,1,1.06-2.48c3.74-6.59,9.62-10.43,16.78-12.06,13.28-3,24.08,1.36,32.35,12,6,7.78,9.08,16.89,11,26.4,2.77,13.46,3.05,27.08,2.18,40.75a126.3,126.3,0,0,1-8.87,40.44c-4.88,11.87-11.52,22.6-21.9,30.42-14.61,11-30.78,14.12-48.09,7.51-11.11-4.24-18-13-22.76-23.64-4.22-9.43-6.07-19.43-6.8-29.69a115.91,115.91,0,0,1,1.46-29.47c2.5-13.61,7.19-26.29,16.2-37.05,5.18-6.19,11.36-11,19.37-13,5.62-1.41,11.15-1.26,16.31,1.69A16,16,0,0,1,318.9,159.18Z"/><path d="M590,218.06c2.66-.33,5-.34,6.7,1.84,1.45,1.9,2.06,4,1,6.3a6.85,6.85,0,0,1-6.09,3.93c-9.16.77-12-7.69-10-14,1.9-6,7.79-10.2,14.52-10.61,13.55-.84,21.78,9,21.92,21,.19,17.1-11.13,30-28.14,32.35-7.83,1.08-15.56.92-23.13-1.47C556.06,254,548.6,246.81,543.45,237c-4.5-8.58-6.7-17.85-8.14-27.34-1.21-7.93-1.25-16-3.57-23.79a44.54,44.54,0,0,0-1.48-4.35c-3.17-7.58-9.35-11-17.46-9.81-2.81.43-2.9.43-2.79,3.26.4,10,.63,20.07,1.39,30.08.5,6.64,1.7,13.3,5.37,19.07,1.15,1.81,3.15,3.07,4.74,4.6.35.33.64.72,1,1.08-.49.35-1,.95-1.46,1-3.29.32-6.6.47-9.9.77-11.35,1-22.65,2.36-33.7,5.31a6.74,6.74,0,0,1-1.94-.09,7,7,0,0,1,.93-1.85c3.39-3.38,4.67-7.74,5.64-12.2,2-9.05,2.47-18.26,2.5-27.48.07-16.08.1-32.17-.14-48.25-.14-9.44-.69-18.88-1.35-28.31a40.9,40.9,0,0,0-2.12-10c-.8-2.39-2.49-4.48-3.76-6.72-.24-.42-.66-1.1-.51-1.33a2.09,2.09,0,0,1,1.42-.76c8.49-.42,17-.61,25.47-1.25,5.57-.41,11.1-1.47,16.66-2.19a5.52,5.52,0,0,1,1.71.31c-.17.45-.21,1.1-.54,1.33-5.24,3.61-7.41,9.05-8.2,14.94-1,7.3-1.42,14.68-1.91,22-.35,5.22-.41,10.46-.62,16.13,2-2.78,3.86-5.22,5.63-7.69,6.44-9,13-17.92,19.23-27a36.69,36.69,0,0,0,6.27-13.77,22.06,22.06,0,0,0,.3-5.26c-.1-2.19.14-2.37,2.29-2.42,9.27-.2,18.54-.42,27.8-.82,5-.22,9.89-.85,14.84-1.22.53,0,1.11.42,1.66.64-.24.47-.36,1.15-.75,1.39-7,4.32-12.94,9.93-18.76,15.64A406,406,0,0,0,532,153.46c-.17.22-.32.47-.62.9,1.67.21,3.17.33,4.64.59,7.29,1.3,12.75,5.36,16.88,11.34,4.45,6.43,6.92,13.7,8.41,21.26,1.43,7.23,2.33,14.56,3.65,21.81s3.28,14.26,7.44,20.49c6.1,9.14,18,10.42,25,7.61a14.09,14.09,0,0,0,7.42-19.7,8.71,8.71,0,0,0-9.12-4.72C592.85,213.45,591.11,215.15,590,218.06Z"/><path d="M602.38,116.48c-3-.26-5.73.17-8,2.18a7.78,7.78,0,0,0-2.46,4.51c-.72,4,.6,8.22,2.81,9.19,0-.55-.13-1.09-.14-1.64a5.15,5.15,0,0,1,5.29-5.6,5.35,5.35,0,0,1,5.37,5.49c0,4.64-3.64,7.84-8.72,7.62-4.65-.21-8.16-3.27-9.45-8.49-.35.83-.66,1.43-.87,2.06a62.52,62.52,0,0,0-2.65,14.34,86.57,86.57,0,0,0,.24,16.88A38.1,38.1,0,0,0,587,175.64a19,19,0,0,0,3.09,4.61c2.67,2.89,6.19,3.32,9.66,1.43s5.44-4.91,7.08-8.27a52.87,52.87,0,0,0,4.52-16.55,111.64,111.64,0,0,0,.91-18.64c-.28-8-.95-16-4-23.43a33.35,33.35,0,0,0-4.14-7.31,14.94,14.94,0,0,0-12.55-6.08c.27-.63.44-1.18.71-1.66a16.62,16.62,0,0,1,11.27-8.1c8.92-2,16.18.91,21.73,8.06,4.05,5.23,6.1,11.35,7.41,17.73a102.94,102.94,0,0,1,1.46,27.37A85,85,0,0,1,628.19,172c-3.28,8-7.74,15.18-14.72,20.43-9.81,7.39-20.66,9.49-32.29,5.05-7.47-2.85-12.11-8.76-15.29-15.88a58.2,58.2,0,0,1-4.57-19.94,78.56,78.56,0,0,1,1-19.79c1.68-9.14,4.83-17.66,10.88-24.88,3.48-4.16,7.63-7.41,13-8.76a14.28,14.28,0,0,1,11,1.13A10.78,10.78,0,0,1,602.38,116.48Z"/><path d="M6.85,113.45l-.46,1.84c.24,1.19,2.16,2,5.74,2.38A36.36,36.36,0,0,0,23.54,117a56.74,56.74,0,0,0,12.89-4.53,66.87,66.87,0,0,0,11.67-7,46.78,46.78,0,0,0,7.71-7.27q2.91-3.57,2.47-5.67-.56-2.66-7.21-3.67a163.68,163.68,0,0,0-19-1.32q-12.34-.31-18.69-3.38t-7.58-9.1A18.69,18.69,0,0,1,7.75,62.67,42.84,42.84,0,0,1,17,50.57a104.4,104.4,0,0,1,13.6-10.75q15.57-10.38,30.1-13.38a44.7,44.7,0,0,1,10-1.05q8.55.24,9.2,3.38a11.42,11.42,0,0,1,.34,4.42,7.41,7.41,0,0,1-.59,1.7,5.31,5.31,0,0,1-.71.92l-.66.71Q76.1,39.37,64,42.45a20.64,20.64,0,0,0-4.49,1.38,1.27,1.27,0,0,1-.6.38q-.27.06-.75-.36a2.8,2.8,0,0,1-.7-1.53q-.23-1.11,1.56-4.58a59.89,59.89,0,0,0-15.38,6.79,83.34,83.34,0,0,0-13.45,9.91,75.16,75.16,0,0,0-9,9.65c-2.3,3-3.34,5.06-3.13,6.06a3.65,3.65,0,0,0,1.44,2.32q3.18,2.23,15.61,2.83,12.89.61,17.36,1.69a60,60,0,0,1,7.53,2.24,21.87,21.87,0,0,1,5,2.64q4.66,3.54,5.59,8A16.16,16.16,0,0,1,70,98.7a28.94,28.94,0,0,1-5.62,9,56.22,56.22,0,0,1-9.93,8.82q-12.9,9.32-32.56,13.38-14.34,3-19.87-3.82a8.33,8.33,0,0,1-1.87-3.77,7.48,7.48,0,0,1,.18-3.94,7.35,7.35,0,0,1,1.79-3c1.55-1.48,2.69-2.3,3.43-2.45S6.74,113,6.85,113.45Z"/><path d="M109.29,95.48a6.83,6.83,0,0,1,.18,2.73,23.77,23.77,0,0,1-7.58,12q-5.82,5.18-10.71,6.18a12.17,12.17,0,0,1-9.08-1.54c-2.8-1.69-4.44-3.68-4.91-5.94s0-5.8,1.36-10.6S81.36,89,82.86,84.9s2.23-6.36,2.17-6.67-.61-.83-1.65-1.56-1.59-1.32-1.68-1.75.53-1.74,1.86-3.93a44.94,44.94,0,0,1,5.12-6.73q3.12-3.45,5.07-3.86a4.73,4.73,0,0,1,3.85,1,5.12,5.12,0,0,1,2.2,2.84q.28,1.41-9.18,29.8c-.07.28-.3.89-.68,1.85s-.67,1.75-.86,2.37-.42,1.37-.67,2.24A10,10,0,0,0,88,104.9c.29,1.4,1.39,1.91,3.28,1.52a11.3,11.3,0,0,0,5.5-3.17,28.52,28.52,0,0,0,4.4-5.39q4.52-7.44,5.32-7.61Q108.14,89.92,109.29,95.48Zm-1.15-56q.72,3.53-1.81,7.76t-6.1,5q-3.56.73-4.32-3a10.54,10.54,0,0,1,1.66-7.72,9.43,9.43,0,0,1,6.19-4.79,3.82,3.82,0,0,1,2.85.37A3.47,3.47,0,0,1,108.14,39.44Z"/><path d="M145.23,7.63a6.37,6.37,0,0,1,3.33,4.76Q149.28,15.85,147,24a137.9,137.9,0,0,1-6.08,17q-3.79,8.81-8.8,18.86-7.92,16-15.54,28.94a25.13,25.13,0,0,1,0,2.86,18.5,18.5,0,0,0,.38,4.14,4.9,4.9,0,0,0,2.64,3.29,7,7,0,0,0,5,.67,11.62,11.62,0,0,0,5.55-3.21A30.14,30.14,0,0,0,134.8,91q4.86-7.65,6.35-8c1-.2,1.79,1.2,2.41,4.21l.26,1.24a5.84,5.84,0,0,1-.14,3.7,34.89,34.89,0,0,1-9.72,11.9,29,29,0,0,1-11.65,5.67q-5.82,1.2-9.58-1.72t-5-9.11q-2.49-12.06.6-29.68a134.87,134.87,0,0,1,8.82-30.74Q130,9,139.64,7A8.44,8.44,0,0,1,145.23,7.63ZM139,17.79c-.13-.62-.4-.89-.81-.8q-2.16.45-8.82,14.71a201.36,201.36,0,0,0-9.24,22.48,108.92,108.92,0,0,0-3.93,20.08q5.5-10.16,14.6-31.15T139,17.79Z"/><path d="M177.86.88a6.35,6.35,0,0,1,3.34,4.75q.72,3.47-1.59,11.65a139,139,0,0,1-6.09,17q-3.78,8.81-8.79,18.87-7.92,15.94-15.54,28.94a24.93,24.93,0,0,1,0,2.85,18.53,18.53,0,0,0,.37,4.15,4.92,4.92,0,0,0,2.65,3.29,7,7,0,0,0,5,.67,11.62,11.62,0,0,0,5.55-3.21,29.42,29.42,0,0,0,4.62-5.54q4.88-7.64,6.35-8t2.42,4.21l.25,1.23a5.88,5.88,0,0,1-.13,3.71,34.89,34.89,0,0,1-9.72,11.9,29,29,0,0,1-11.66,5.67q-5.81,1.2-9.57-1.73t-5-9.11q-2.51-12,.59-29.67a135.23,135.23,0,0,1,8.82-30.74Q162.63,2.19,172.27.2A8.44,8.44,0,0,1,177.86.88ZM171.62,11c-.13-.61-.4-.88-.81-.8Q168.64,10.68,162,25a200.58,200.58,0,0,0-9.24,22.47,107.57,107.57,0,0,0-3.93,20.09q5.51-10.16,14.6-31.16T171.62,11Z"/><path d="M195.84,113.47A27.9,27.9,0,0,0,194.6,117q-1,3.15-2.19,6.39a31,31,0,0,1-3.29,6.38q-2.09,3.15-3.8,3.72t-2.22.69q-5.68,1.17-6.87-4.58-1.39-6.74,3.72-17.2a75.25,75.25,0,0,1,5.16-8.71c2.14-3.17,3.29-5,3.47-5.36s2.07-6.82,5.68-19.25a101.75,101.75,0,0,1-8.82,12.81q-4.23,5.1-8.83,6.57l-.43.09a8.62,8.62,0,0,1-5.08-.6c-1.79-.72-2.95-2.41-3.5-5a23.1,23.1,0,0,1,.8-12q.72-2.14,2.52-7.29c1.2-3.43,2.3-6.72,3.27-9.89a92.84,92.84,0,0,0,2.94-8.86q1.41-5,2.25-7.2c.55-1.47,1.2-2.28,1.94-2.43a5.3,5.3,0,0,1,3.17.79,4.22,4.22,0,0,1,2.44,2.94q.4,1.92-4.65,18.31t-4.64,18.42a.46.46,0,0,0,.6.4q1.66-.35,6.41-6.26A142.4,142.4,0,0,0,194.78,65a110.85,110.85,0,0,0,9-17.53c.25-.65.46-1.16.62-1.51s.37-.83.61-1.42.45-1,.62-1.38l.59-1.19a6.61,6.61,0,0,1,.65-1.07c.21-.26.43-.52.68-.78a2.27,2.27,0,0,1,1.38-.94,14.3,14.3,0,0,1,2.62-.15,4.23,4.23,0,0,1,2.2.38,10.62,10.62,0,0,0,.88.66,2,2,0,0,1,.88,1.14,3.72,3.72,0,0,1-.18,1.65c-.19.7-1.43,4.37-3.72,11q-10.05,29.3-13.38,42.48,7.76-9.85,21.61-28.9a2.14,2.14,0,0,1,1.24-.84c1.28-.26,2.32,1.56,3.13,5.48a3.18,3.18,0,0,1-.14,2.41A290.11,290.11,0,0,0,195.84,113.47Z"/></g></g></svg>